# xmcd
#
# Track frame offsets:
#	150
#	16364
#	33050
#	53009
#	69931
#	85207
#	102309
#	116981
#	130332
#	150842
#	167746
#	183763
#	201854
#	218333
#	237737
#	258044
#	274926
#	286930
#	303639
#	320095
#
# Disc length: 4503 seconds
#
# Revision: 0
# Processed by: cddbd v1.5.2PL0 Copyright (c) Steve Scherf et al.
# Submitted via: audiograbber 1.83.01
#
DISCID=12119514
DTITLE=Toby Keith - various
DYEAR=1900
DGENRE=karaoke
TTITLE0=Beer For My Horses (Duet)
TTITLE1=Courtesy Of The Red White and Blue
TTITLE2=Dream Walkin'
TTITLE3=Getcha Some
TTITLE4=He Ain't Worth Missin'
TTITLE5=How Do You Like Me Now
TTITLE6=I Wanna Talk About Me
TTITLE7=I'm Just Talkin' About Tonight
TTITLE8=don't know
TTITLE9=Me Too
TTITLE10=My List
TTITLE11=Rock You Baby
TTITLE12=Should've Been A Cowboy
TTITLE13=We Were In Love
TTITLE14=Who's Your Daddy
TTITLE15=Wish I Didn't Know
TTITLE16=You Ain't Much Fun
TTITLE17=don't know
TTITLE18=don't know
TTITLE19=don't know
EXTD=karaoke
EXTT0=
EXTT1=
EXTT2=
EXTT3=
EXTT4=
EXTT5=
EXTT6=
EXTT7=
EXTT8=\n
EXTT9=
EXTT10=
EXTT11=
EXTT12=
EXTT13=
EXTT14=
EXTT15=
EXTT16=
EXTT17=
EXTT18=
EXTT19=
PLAYORDER=
